<?xml version="1.0" encoding="UTF-8"?>
<svg version="1.1" xmlns="http://www.w3.org/2000/svg" width="447" height="559">
<path d="M0 0 C2.86139771 1.10707828 4.39911799 2.71693262 6.55853271 4.895401 C7.41912292 5.7562178 8.27971313 6.61703461 9.16638184 7.50393677 C10.0863092 8.43934799 11.00623657 9.37475922 11.95404053 10.33851624 C12.91173773 11.30181074 13.87010099 12.26444347 14.82910156 13.22644043 C17.34775783 15.75653482 19.85727391 18.29550927 22.36499023 20.83644104 C24.92697285 23.42914676 27.49750054 26.01334954 30.06732178 28.59828186 C35.10566394 33.66876988 40.13439887 38.74868879 45.15716553 43.83460999 C50.79195531 39.16533062 55.90901767 34.14059355 61.01263428 28.90101624 C62.70279379 27.1836329 64.39356683 25.46685319 66.0848999 23.75062561 C68.73086657 21.06119742 71.37277953 18.36823217 74.00457764 15.66493225 C76.55848725 13.04476722 79.12773159 10.44051016 81.70013428 7.83851624 C82.88303291 6.61220238 82.88303291 6.61220238 84.08982849 5.3611145 C84.8277211 4.61961655 85.56561371 3.87811859 86.3258667 3.114151 C86.97093674 2.4549617 87.61600677 1.7957724 88.28062439 1.11660767 C90.15716553 -0.16539001 90.15716553 -0.16539001 92.27430725 0.03662109 C94.65159058 1.04415613 96.13053515 2.33895444 97.96966553 4.14710999 C98.59486084 4.7413678 99.22005615 5.33562561 99.86419678 5.94789124 C101.15716553 7.83460999 101.15716553 7.83460999 100.99177551 9.67744446 C99.88469723 12.53884217 98.2748429 14.07656245 96.09637451 16.23597717 C95.23555771 17.09656738 94.37474091 17.95715759 93.48783875 18.84382629 C92.55242752 19.76375366 91.6170163 20.68368103 90.65325928 21.63148499 C89.68996477 22.58918218 88.72733204 23.54754545 87.76533508 24.50654602 C85.2352407 27.02520229 82.69626624 29.53471837 80.15533447 32.04243469 C77.56262876 34.6044173 74.97842597 37.174945 72.39349365 39.74476624 C67.32300563 44.78310839 62.24308672 49.81184333 57.15716553 54.83460999 C61.66361776 60.233412 66.43200164 65.25227883 71.40985107 70.21669006 C72.21545471 71.02404602 73.02105835 71.83140198 73.85107422 72.66322327 C76.49617939 75.31270527 79.14489632 77.95854172 81.79388428 80.60414124 C83.63914872 82.45007965 85.48426473 84.29616647 87.32923889 86.14239502 C91.18650883 90.00147806 95.04586883 93.85846142 98.90643311 97.71424866 C103.36749131 102.16985044 107.82491495 106.62906398 112.28049821 111.09014016 C116.57641449 115.39113982 120.87513522 119.68932492 125.17505836 123.98631859 C127.00148787 125.81208027 128.82717279 127.63858714 130.65210533 129.46584511 C133.19654996 132.01282158 135.74416477 134.55658357 138.29266357 137.09950256 C139.04856277 137.85742599 139.80446198 138.61534943 140.58326721 139.39624023 C141.27709503 140.08724823 141.97092285 140.77825623 142.68577576 141.49020386 C143.28728801 142.09133908 143.88880026 142.69247431 144.50854015 143.31182575 C146.28737013 145.03486203 146.28737013 145.03486203 149.15716553 146.83460999 C149.66888428 149.65492249 149.66888428 149.65492249 149.84466553 152.95960999 C149.91040771 154.05531311 149.9761499 155.15101624 150.04388428 156.27992249 C150.0999585 157.5444928 150.0999585 157.5444928 150.15716553 158.83460999 C148.14125237 159.05287427 146.11833099 159.20684757 144.09466553 159.33460999 C142.96931396 159.42742249 141.8439624 159.52023499 140.68450928 159.61585999 C136.77261853 158.749439 136.36966404 158.28394075 133.9683075 155.32447815 C130.089216 150.70864033 125.92317017 146.46688965 121.65155029 142.21546936 C120.83122818 141.39500122 120.01090607 140.57453308 119.16572571 139.72920227 C116.47904034 137.04320834 113.78884039 134.36076455 111.09857178 131.67835999 C109.22505654 129.80671166 107.35173979 127.93486677 105.47868347 126.0627594 C101.06809532 121.65526521 96.65496692 117.25032384 92.24089426 112.84631968 C87.2110222 107.8276692 82.18402803 102.8061402 77.15726006 97.78438091 C66.827069 87.46461037 56.49331234 77.14841528 46.15716553 66.83460999 C42.43119581 69.97256985 38.75689308 73.08293564 35.41595459 76.63685608 C34.77128235 77.31710846 34.12661011 77.99736084 33.46240234 78.69822693 C32.78933044 79.41096771 32.11625854 80.1237085 31.42279053 80.85804749 C29.94778723 82.38949867 28.4711751 83.91940166 26.99310303 85.44789124 C24.68998494 87.83119049 22.39662393 90.22084517 20.12884521 92.63783264 C17.91909422 94.98742317 15.67535373 97.29956425 13.42279053 99.60804749 C12.75781555 100.33293365 12.09284058 101.05781982 11.40771484 101.80467224 C8.42945338 104.80132366 6.45691971 106.64020643 2.19415283 107.27778625 C-0.52615131 107.28534417 -3.14347854 107.15876165 -5.84283447 106.83460999 C-7.13930568 102.94519635 -7.49742042 100.94860058 -6.84283447 96.83460999 C-4.23760396 93.23318277 -1.07431689 90.25357584 2.12591553 87.18226624 C3.49097229 85.83206642 3.49097229 85.83206642 4.88360596 84.45458984 C7.29498578 82.06984735 9.72663855 79.70687845 12.16320801 77.34791565 C14.64911025 74.93381685 17.11514117 72.49960254 19.58294678 70.06703186 C24.42295392 65.30417666 29.28239195 60.56186155 34.15716553 55.83460999 C29.48788617 50.1998202 24.46314909 45.08275785 19.22357178 39.97914124 C17.50618844 38.28898173 15.78940873 36.59820869 14.07318115 34.90687561 C11.38375297 32.26090894 8.69078771 29.61899599 5.98748779 26.98719788 C3.36732276 24.43328826 0.7630657 21.86404392 -1.83892822 19.29164124 C-2.65647079 18.50304214 -3.47401337 17.71444305 -4.31632996 16.90194702 C-5.05782791 16.16405441 -5.79932587 15.4261618 -6.56329346 14.66590881 C-7.22248276 14.02083878 -7.88167206 13.37576874 -8.56083679 12.71115112 C-9.84283447 10.83460999 -9.84283447 10.83460999 -9.64082336 8.71746826 C-8.63328832 6.34018493 -7.33849002 4.86124036 -5.53033447 3.02210999 C-4.93607666 2.39691467 -4.34181885 1.77171936 -3.72955322 1.12757874 C-1.84283447 -0.16539001 -1.84283447 -0.16539001 0 0 Z " fill="#181818" transform="translate(177.84283447265625,224.16539001464844)"/>
<path d="M0 0 C0.99 0.33 1.98 0.66 3 1 C2.43410156 1.53109375 1.86820313 2.0621875 1.28515625 2.609375 C0.55167969 3.31578125 -0.18179688 4.0221875 -0.9375 4.75 C-1.66839844 5.44609375 -2.39929688 6.1421875 -3.15234375 6.859375 C-5.00517646 9.00599725 -5.60771565 10.23532932 -6 13 C-6.66 12.34 -7.32 11.68 -8 11 C-7.70831244 7.38008264 -6.00384429 5.67636187 -3.4375 3.25 C-2.79683594 2.63640625 -2.15617188 2.0228125 -1.49609375 1.390625 C-1.00238281 0.93171875 -0.50867188 0.4728125 0 0 Z " fill="#787878" transform="translate(176,224)"/>
<path d="" fill="#FFFFFF" transform="translate(0,0)"/>
<path d="" fill="#FFFFFF" transform="translate(0,0)"/>
<path d="" fill="#FFFFFF" transform="translate(0,0)"/>
<path d="" fill="#FFFFFF" transform="translate(0,0)"/>
<path d="" fill="#FFFFFF" transform="translate(0,0)"/>
<path d="" fill="#FFFFFF" transform="translate(0,0)"/>
<path d="" fill="#FFFFFF" transform="translate(0,0)"/>
<path d="" fill="#FFFFFF" transform="translate(0,0)"/>
<path d="" fill="#FFFFFF" transform="translate(0,0)"/>
<path d="" fill="#FFFFFF" transform="translate(0,0)"/>
<path d="" fill="#FFFFFF" transform="translate(0,0)"/>
<path d="" fill="#FFFFFF" transform="translate(0,0)"/>
<path d="" fill="#FFFFFF" transform="translate(0,0)"/>
<path d="" fill="#FFFFFF" transform="translate(0,0)"/>
<path d="" fill="#FFFFFF" transform="translate(0,0)"/>
<path d="" fill="#FFFFFF" transform="translate(0,0)"/>
<path d="" fill="#FFFFFF" transform="translate(0,0)"/>
<path d="" fill="#FFFFFF" transform="translate(0,0)"/>
<path d="" fill="#FFFFFF" transform="translate(0,0)"/>
<path d="" fill="#FFFFFF" transform="translate(0,0)"/>
<path d="" fill="#FFFFFF" transform="translate(0,0)"/>
<path d="" fill="#FFFFFF" transform="translate(0,0)"/>
<path d="" fill="#FFFFFF" transform="translate(0,0)"/>
<path d="" fill="#FFFFFF" transform="translate(0,0)"/>
<path d="" fill="#FFFFFF" transform="translate(0,0)"/>
<path d="" fill="#FFFFFF" transform="translate(0,0)"/>
<path d="" fill="#FFFFFF" transform="translate(0,0)"/>
<path d="" fill="#FFFFFF" transform="translate(0,0)"/>
<path d="" fill="#FFFFFF" transform="translate(0,0)"/>
<path d="" fill="#FFFFFF" transform="translate(0,0)"/>
<path d="" fill="#FFFFFF" transform="translate(0,0)"/>
<path d="" fill="#FFFFFF" transform="translate(0,0)"/>
<path d="" fill="#FFFFFF" transform="translate(0,0)"/>
<path d="" fill="#FFFFFF" transform="translate(0,0)"/>
<path d="" fill="#FFFFFF" transform="translate(0,0)"/>
<path d="" fill="#FFFFFF" transform="translate(0,0)"/>
<path d="" fill="#FFFFFF" transform="translate(0,0)"/>
<path d="" fill="#FFFFFF" transform="translate(0,0)"/>
<path d="" fill="#FFFFFF" transform="translate(0,0)"/>
<path d="" fill="#FFFFFF" transform="translate(0,0)"/>
<path d="" fill="#FFFFFF" transform="translate(0,0)"/>
<path d="" fill="#FFFFFF" transform="translate(0,0)"/>
<path d="" fill="#FFFFFF" transform="translate(0,0)"/>
<path d="" fill="#FFFFFF" transform="translate(0,0)"/>
<path d="" fill="#FFFFFF" transform="translate(0,0)"/>
<path d="" fill="#FFFFFF" transform="translate(0,0)"/>
<path d="" fill="#FFFFFF" transform="translate(0,0)"/>
<path d="" fill="#FFFFFF" transform="translate(0,0)"/>
<path d="" fill="#FFFFFF" transform="translate(0,0)"/>
<path d="" fill="#FFFFFF" transform="translate(0,0)"/>
<path d="" fill="#FFFFFF" transform="translate(0,0)"/>
<path d="" fill="#FFFFFF" transform="translate(0,0)"/>
<path d="" fill="#FFFFFF" transform="translate(0,0)"/>
<path d="" fill="#FFFFFF" transform="translate(0,0)"/>
<path d="" fill="#FFFFFF" transform="translate(0,0)"/>
<path d="" fill="#FFFFFF" transform="translate(0,0)"/>
<path d="" fill="#FFFFFF" transform="translate(0,0)"/>
<path d="" fill="#FFFFFF" transform="translate(0,0)"/>
<path d="" fill="#FFFFFF" transform="translate(0,0)"/>
<path d="" fill="#FFFFFF" transform="translate(0,0)"/>
<path d="" fill="#FFFFFF" transform="translate(0,0)"/>
<path d="" fill="#FFFFFF" transform="translate(0,0)"/>
<path d="" fill="#FFFFFF" transform="translate(0,0)"/>
<path d="" fill="#FFFFFF" transform="translate(0,0)"/>
<path d="" fill="#FFFFFF" transform="translate(0,0)"/>
<path d="" fill="#FFFFFF" transform="translate(0,0)"/>
<path d="" fill="#FFFFFF" transform="translate(0,0)"/>
<path d="" fill="#FFFFFF" transform="translate(0,0)"/>
<path d="" fill="#FFFFFF" transform="translate(0,0)"/>
<path d="" fill="#FFFFFF" transform="translate(0,0)"/>
<path d="" fill="#FFFFFF" transform="translate(0,0)"/>
<path d="" fill="#FFFFFF" transform="translate(0,0)"/>
<path d="" fill="#FFFFFF" transform="translate(0,0)"/>
<path d="" fill="#FFFFFF" transform="translate(0,0)"/>
<path d="" fill="#FFFFFF" transform="translate(0,0)"/>
<path d="" fill="#FFFFFF" transform="translate(0,0)"/>
<path d="" fill="#FFFFFF" transform="translate(0,0)"/>
<path d="" fill="#FFFFFF" transform="translate(0,0)"/>
<path d="" fill="#FFFFFF" transform="translate(0,0)"/>
<path d="" fill="#FFFFFF" transform="translate(0,0)"/>
<path d="" fill="#FFFFFF" transform="translate(0,0)"/>
<path d="" fill="#FFFFFF" transform="translate(0,0)"/>
<path d="" fill="#FFFFFF" transform="translate(0,0)"/>
<path d="" fill="#FFFFFF" transform="translate(0,0)"/>
<path d="" fill="#FFFFFF" transform="translate(0,0)"/>
<path d="" fill="#FFFFFF" transform="translate(0,0)"/>
<path d="" fill="#FFFFFF" transform="translate(0,0)"/>
<path d="" fill="#FFFFFF" transform="translate(0,0)"/>
<path d="" fill="#FFFFFF" transform="translate(0,0)"/>
<path d="" fill="#FFFFFF" transform="translate(0,0)"/>
<path d="" fill="#FFFFFF" transform="translate(0,0)"/>
<path d="" fill="#FFFFFF" transform="translate(0,0)"/>
<path d="" fill="#FFFFFF" transform="translate(0,0)"/>
<path d="" fill="#FFFFFF" transform="translate(0,0)"/>
<path d="" fill="#FFFFFF" transform="translate(0,0)"/>
<path d="" fill="#FFFFFF" transform="translate(0,0)"/>
<path d="" fill="#FFFFFF" transform="translate(0,0)"/>
<path d="" fill="#FFFFFF" transform="translate(0,0)"/>
</svg>
